<svg data-v-423bf9ae="" xmlns="http://www.w3.org/2000/svg" viewBox="0 0 408 90" class="iconLeft"><!----><!----><!----><g data-v-423bf9ae="" id="7b4b162c-d95b-46fd-9aec-6b3e38c5bd71" fill="white" transform="matrix(5.639097562403148,0,0,5.639097562403148,107.51879939467082,13.87218018759149)"><path d="M8.95 1.38L10.12 1.38L12.17 1.35L12.17 1.83L11.39 1.98L11.30 3.82L11.30 8.20L11.41 10.04L12.40 10.20L12.40 10.68L10.47 10.64L8.69 10.68L8.69 10.20L9.56 10.04L9.66 8.20L9.66 2.25L6.70 10.64L5.48 10.64L2.59 2.25L2.56 6.37L2.60 8.82L2.60 8.82Q2.60 9.85 2.70 10.04L2.70 10.04L3.48 10.20L3.48 10.68L2.04 10.64L0.44 10.68L0.44 10.20L1.35 10.04L1.35 10.04Q1.37 9.97 1.41 9.60L1.41 9.60L1.41 9.60Q1.45 9.23 1.45 8.82L1.45 8.82L1.45 8.82Q1.45 8.28 1.47 7.98L1.47 7.98L1.47 7.98Q1.53 6.51 1.53 6.37L1.53 6.37L1.55 3.82L1.45 1.97L0.68 1.83L0.68 1.35L2.74 1.38L3.93 1.38L6.46 8.60L8.95 1.38ZM19.49 3.22L19.43 4.35L19.43 8.04L19.45 9.33L19.45 9.33Q19.45 9.48 19.46 9.58L19.46 9.58L19.46 9.58Q19.47 9.67 19.55 10.04L19.55 10.04L20.31 10.20L20.30 10.68L19.12 10.64L17.87 10.68L17.87 9.32L17.87 9.32Q17.36 10.08 16.70 10.46L16.70 10.46L16.70 10.46Q16.04 10.84 15.30 10.84L15.30 10.84L15.30 10.84Q14.37 10.84 13.75 10.22L13.75 10.22L13.75 10.22Q13.13 9.60 13.13 8.65L13.13 8.65L13.13 6.05L13.13 6.05Q13.13 5.52 13.08 5.00L13.08 5.00L13.08 5.00Q13.08 4.72 13.05 4.51L13.05 4.51L13.05 4.51Q13.01 4.30 13.00 4.23L13.00 4.23L12.12 4.06L12.12 3.57L12.12 3.57Q12.40 3.57 12.54 3.56L12.54 3.56L12.54 3.56Q12.68 3.55 13.21 3.44L13.21 3.44L13.21 3.44Q13.77 3.37 14.29 3.22L14.29 3.22L14.89 3.22L14.77 5.64L14.77 7.55L14.77 7.55Q14.77 8.59 15.08 9.12L15.08 9.12L15.08 9.12Q15.39 9.65 16.04 9.65L16.04 9.65L16.04 9.65Q16.88 9.65 17.34 8.91L17.34 8.91L17.34 8.91Q17.80 8.17 17.80 6.92L17.80 6.92L17.80 6.05L17.80 6.05Q17.80 5.81 17.79 5.55L17.79 5.55L17.79 5.55Q17.78 5.29 17.74 5.00L17.74 5.00L17.67 4.23L16.79 4.06L16.79 3.57L16.79 3.57Q17.04 3.57 17.25 3.54L17.25 3.54L17.25 3.54Q17.46 3.51 17.82 3.44L17.82 3.44L17.82 3.44Q18.34 3.37 18.87 3.22L18.87 3.22L19.49 3.22ZM25.45 10.68L25.45 9.48L25.45 9.48Q24.99 10.20 24.42 10.52L24.42 10.52L24.42 10.52Q23.85 10.84 23.23 10.84L23.23 10.84L23.23 10.84Q21.86 10.84 21.02 9.88L21.02 9.88L21.02 9.88Q20.18 8.92 20.18 7.39L20.18 7.39L20.18 7.39Q20.18 5.54 21.29 4.38L21.29 4.38L21.29 4.38Q22.40 3.22 24.16 3.22L24.16 3.22L24.16 3.22Q24.52 3.22 24.79 3.28L24.79 3.28L25.33 3.35L25.33 3.42L25.30 1.99L25.30 1.99Q25.30 1.68 25.27 1.52L25.27 1.52L25.27 1.52Q25.25 1.36 25.20 1.22L25.20 1.22L24.32 1.05L24.32 0.56L26.49 0.20L27.09 0.20L27.00 1.25L26.96 2.12L26.96 7.98L26.96 7.98Q26.96 8.38 26.98 8.75L26.98 8.75L26.98 8.75Q27.00 9.11 27.01 9.33L27.01 9.33L27.01 9.33Q27.01 9.78 27.12 10.04L27.12 10.04L27.12 10.04Q27.23 10.04 27.28 10.06L27.28 10.06L27.28 10.06Q27.33 10.07 27.49 10.10L27.49 10.10L27.87 10.20L27.87 10.68L26.67 10.64L25.45 10.68ZM25.35 6.84L25.35 6.84L25.35 4.48L25.35 4.48Q25.24 4.40 24.91 4.28L24.91 4.28L24.91 4.28Q24.58 4.17 24.02 4.17L24.02 4.17L24.02 4.17Q22.97 4.17 22.45 4.85L22.45 4.85L22.45 4.85Q21.94 5.53 21.94 6.85L21.94 6.85L21.94 6.85Q21.94 8.15 22.40 8.90L22.40 8.90L22.40 8.90Q22.86 9.65 23.77 9.65L23.77 9.65L23.77 9.65Q24.59 9.65 24.97 8.92L24.97 8.92L24.97 8.92Q25.35 8.19 25.35 6.84ZM31.03 7.08L31.03 7.94L31.03 7.94Q31.03 8.42 31.04 8.75L31.04 8.75L31.04 8.75Q31.05 9.08 31.11 9.54L31.11 9.54L31.11 9.54Q31.17 10.00 31.19 10.04L31.19 10.04L32.09 10.20L32.09 10.68L30.22 10.64L28.50 10.68L28.50 10.20L29.25 10.04L29.32 9.39L29.32 9.39Q29.35 9.09 29.37 8.70L29.37 8.70L29.37 8.70Q29.39 8.32 29.39 7.94L29.39 7.94L29.39 6.40L29.39 6.22L29.39 6.06L29.39 6.06Q29.39 5.81 29.38 5.55L29.38 5.55L29.38 5.55Q29.37 5.28 29.33 5.03L29.33 5.03L29.26 4.19L28.38 4.02L28.38 3.54L28.38 3.54Q28.67 3.54 28.91 3.50L28.91 3.50L28.91 3.50Q29.25 3.43 29.42 3.41L29.42 3.41L29.42 3.41Q29.76 3.35 29.95 3.31L29.95 3.31L29.95 3.31Q30.14 3.26 30.47 3.17L30.47 3.17L30.88 3.17L30.84 5.24L30.84 5.24Q31.17 4.24 31.87 3.72L31.87 3.72L31.87 3.72Q32.21 3.48 32.55 3.35L32.55 3.35L32.55 3.35Q32.89 3.22 33.24 3.22L33.24 3.22L33.24 3.22Q33.39 3.22 33.52 3.24L33.52 3.24L33.52 3.24Q33.66 3.26 33.81 3.31L33.81 3.31L33.81 3.31Q33.97 3.35 34.06 3.43L34.06 3.43L33.65 4.48L33.42 5.27L33.42 5.27Q32.94 5.16 32.93 5.05L32.93 5.05L32.93 5.05Q32.93 4.91 32.96 4.84L32.96 4.84L32.96 4.84Q32.96 4.55 32.87 4.52L32.87 4.52L32.87 4.52Q32.78 4.48 32.62 4.48L32.62 4.48L32.62 4.48Q31.98 4.48 31.50 5.23L31.50 5.23L31.50 5.23Q31.03 5.98 31.03 7.08L31.03 7.08ZM40.39 8.42L40.92 8.92L40.92 8.92Q40.67 9.28 40.33 9.60L40.33 9.60L40.33 9.60Q40.00 9.93 39.52 10.23L39.52 10.23L39.52 10.23Q38.58 10.84 37.52 10.84L37.52 10.84L37.52 10.84Q35.80 10.84 34.83 9.85L34.83 9.85L34.83 9.85Q33.85 8.86 33.85 7.11L33.85 7.11L33.85 7.11Q33.85 5.50 35.01 4.36L35.01 4.36L35.01 4.36Q36.16 3.22 37.79 3.22L37.79 3.22L37.79 3.22Q39.14 3.22 39.97 4.02L39.97 4.02L39.97 4.02Q40.80 4.83 40.80 6.08L40.80 6.08L40.80 6.49L35.69 6.49L35.69 6.49Q35.69 8.03 36.24 8.84L36.24 8.84L36.24 8.84Q36.79 9.65 37.98 9.65L37.98 9.65L37.98 9.65Q38.81 9.65 39.44 9.21L39.44 9.21L39.44 9.21Q40.08 8.77 40.39 8.42L40.39 8.42ZM35.73 5.79L35.73 5.79L39.03 5.64L39.03 5.48L39.03 5.48Q39.03 4.77 38.70 4.38L38.70 4.38L38.70 4.38Q38.37 4.00 37.69 4.00L37.69 4.00L37.69 4.00Q36.79 4.00 36.22 4.67L36.22 4.67L36.22 4.67Q35.89 5.10 35.73 5.79ZM52.26 5.43L52.26 7.94L52.26 7.94Q52.26 8.42 52.27 8.75L52.27 8.75L52.27 8.75Q52.28 9.08 52.33 9.39L52.33 9.39L52.40 10.04L53.15 10.20L53.15 10.68L51.45 10.64L50.63 10.68L50.63 6.43L50.63 6.43Q50.63 5.42 50.35 4.90L50.35 4.90L50.35 4.90Q50.05 4.40 49.35 4.40L49.35 4.40L49.35 4.40Q48.65 4.40 48.20 5.04L48.20 5.04L48.20 5.04Q47.79 5.68 47.79 6.73L47.79 6.73L47.79 7.94L47.79 7.94Q47.79 8.42 47.80 8.75L47.80 8.75L47.80 8.75Q47.81 9.08 47.86 9.39L47.86 9.39L47.93 10.04L48.68 10.20L48.68 10.68L46.98 10.64L45.28 10.68L45.28 10.20L46.03 10.04L46.09 9.39L46.09 9.39Q46.16 8.79 46.16 7.94L46.16 7.94L46.16 6.43L46.16 6.43Q46.16 5.42 45.88 4.90L45.88 4.90L45.88 4.90Q45.59 4.40 44.88 4.40L44.88 4.40L44.88 4.40Q44.14 4.40 43.73 5.04L43.73 5.04L43.73 5.04Q43.32 5.68 43.32 6.73L43.32 6.73L43.32 7.94L43.32 7.94Q43.32 8.35 43.33 8.72L43.33 8.72L43.33 8.72Q43.35 9.08 43.39 9.53L43.39 9.53L43.39 9.53Q43.44 9.98 43.47 10.04L43.47 10.04L44.22 10.20L44.22 10.68L42.51 10.64L40.80 10.68L40.80 10.20L41.55 10.04L41.62 9.39L41.62 9.39Q41.64 9.09 41.67 8.70L41.67 8.70L41.67 8.70Q41.69 8.32 41.69 7.94L41.69 7.94L41.69 6.40L41.69 6.22L41.69 6.06L41.69 6.06Q41.69 5.81 41.68 5.55L41.68 5.55L41.68 5.55Q41.67 5.28 41.63 5.03L41.63 5.03L41.56 4.19L40.68 4.02L40.68 3.54L40.68 3.54Q40.98 3.54 41.23 3.50L41.23 3.50L41.23 3.50Q41.59 3.43 41.77 3.41L41.77 3.41L41.77 3.41Q42.17 3.35 42.36 3.31L42.36 3.31L42.36 3.31Q42.55 3.26 42.89 3.17L42.89 3.17L43.38 3.17L43.32 4.48L43.32 4.48Q43.86 3.84 44.44 3.53L44.44 3.53L44.44 3.53Q45.03 3.22 45.72 3.22L45.72 3.22L45.72 3.22Q46.47 3.22 46.96 3.59L46.96 3.59L46.96 3.59Q47.46 3.97 47.66 4.58L47.66 4.58L47.66 4.58Q47.83 4.33 48.04 4.11L48.04 4.11L48.04 4.11Q48.26 3.90 48.59 3.66L48.59 3.66L48.59 3.66Q49.18 3.22 50.20 3.22L50.20 3.22L50.20 3.22Q51.13 3.22 51.69 3.82L51.69 3.82L51.69 3.82Q52.26 4.43 52.26 5.43L52.26 5.43Z"></path></g><!----><g data-v-423bf9ae="" id="455645ab-1b05-4039-9dcf-ab1dbbbebf41" transform="matrix(2.8125,0,0,2.8125,0,0)" stroke="none" fill="white"><path d="M0 16l16 16 16-16L16 0 0 16zm16 13.172L2.828 16 16 2.828 29.172 16 16 29.172z"></path><path d="M14.751 9.991v4.76h-2.262v-4.76H9.991v12.018h2.498v-4.76h2.262v4.76h2.498v-4.76h2.262v4.76h2.498V9.991h-2.498v4.76h-2.262v-4.76z"></path></g><!----></svg>